<svg width="30" height="30" viewBox="0 0 30 30" fill="none" xmlns="http://www.w3.org/2000/svg">
<path d="M18.75 30C18.3889 30 18.0347 29.9653 17.6875 29.8958C17.3403 29.8264 17 29.7222 16.6667 29.5833V0.416667C17 0.277778 17.3403 0.173611 17.6875 0.104167C18.0347 0.0347222 18.3889 0 18.75 0C20.1944 0 21.4375 0.486111 22.4792 1.45833C23.5208 2.43056 24.0833 3.625 24.1667 5.04167C25.8056 5.26389 27.1875 6 28.3125 7.25C29.4375 8.5 30 9.97222 30 11.6667C30 12.2778 29.9236 12.8611 29.7708 13.4167C29.6181 13.9722 29.3889 14.5 29.0833 15C29.3889 15.5 29.6181 16.0347 29.7708 16.6042C29.9236 17.1736 30 17.75 30 18.3333C30 20.0556 29.4375 21.5347 28.3125 22.7708C27.1875 24.0069 25.7917 24.7361 24.125 24.9583C23.9861 26.3472 23.4097 27.5347 22.3958 28.5208C21.3819 29.5069 20.1667 30 18.75 30ZM11.25 30C9.83333 30 8.61111 29.5069 7.58333 28.5208C6.55556 27.5347 5.97222 26.3472 5.83333 24.9583C4.16667 24.7361 2.77778 24 1.66667 22.75C0.555555 21.5 0 20.0278 0 18.3333C0 17.75 0.0763889 17.1736 0.229167 16.6042C0.381944 16.0347 0.611111 15.5 0.916667 15C0.611111 14.5 0.381944 13.9722 0.229167 13.4167C0.0763889 12.8611 0 12.2778 0 11.6667C0 9.97222 0.555555 8.50694 1.66667 7.27083C2.77778 6.03472 4.15278 5.30556 5.79167 5.08333C5.875 3.66667 6.44444 2.46528 7.5 1.47917C8.55556 0.493056 9.80556 0 11.25 0C11.6111 0 11.9653 0.0416667 12.3125 0.125C12.6597 0.208333 13 0.319444 13.3333 0.458333V29.5833C13 29.7222 12.6597 29.8264 12.3125 29.8958C11.9653 29.9653 11.6111 30 11.25 30Z" fill="#5E3BDC"/>
</svg>
