<svg width="138" height="34" viewBox="0 0 138 34" fill="none" xmlns="http://www.w3.org/2000/svg">
<path d="M18.75 32C18.3889 32 18.0347 31.9653 17.6875 31.8958C17.3403 31.8264 17 31.7222 16.6667 31.5833V2.41667C17 2.27778 17.3403 2.17361 17.6875 2.10417C18.0347 2.03472 18.3889 2 18.75 2C20.1944 2 21.4375 2.48611 22.4792 3.45833C23.5208 4.43056 24.0833 5.625 24.1667 7.04167C25.8056 7.26389 27.1875 8 28.3125 9.25C29.4375 10.5 30 11.9722 30 13.6667C30 14.2778 29.9236 14.8611 29.7708 15.4167C29.6181 15.9722 29.3889 16.5 29.0833 17C29.3889 17.5 29.6181 18.0347 29.7708 18.6042C29.9236 19.1736 30 19.75 30 20.3333C30 22.0556 29.4375 23.5347 28.3125 24.7708C27.1875 26.0069 25.7917 26.7361 24.125 26.9583C23.9861 28.3472 23.4097 29.5347 22.3958 30.5208C21.3819 31.5069 20.1667 32 18.75 32ZM11.25 32C9.83333 32 8.61111 31.5069 7.58333 30.5208C6.55556 29.5347 5.97222 28.3472 5.83333 26.9583C4.16667 26.7361 2.77778 26 1.66667 24.75C0.555555 23.5 0 22.0278 0 20.3333C0 19.75 0.0763889 19.1736 0.229167 18.6042C0.381944 18.0347 0.611111 17.5 0.916667 17C0.611111 16.5 0.381944 15.9722 0.229167 15.4167C0.0763889 14.8611 0 14.2778 0 13.6667C0 11.9722 0.555555 10.5069 1.66667 9.27083C2.77778 8.03472 4.15278 7.30556 5.79167 7.08333C5.875 5.66667 6.44444 4.46528 7.5 3.47917C8.55556 2.49306 9.80556 2 11.25 2C11.6111 2 11.9653 2.04167 12.3125 2.125C12.6597 2.20833 13 2.31944 13.3333 2.45833V31.5833C13 31.7222 12.6597 31.8264 12.3125 31.8958C11.9653 31.9653 11.6111 32 11.25 32Z" fill="#5E3BDC"/>
<path d="M39.998 28V7.14H47.796C49.2147 7.14 50.4688 7.3955 51.5585 7.9065C52.6482 8.4175 53.5022 9.16417 54.1205 10.1465C54.7388 11.1288 55.048 12.3247 55.048 13.734C55.048 15.1153 54.7353 16.296 54.11 17.276C53.4847 18.256 52.6283 19.005 51.541 19.523C50.4537 20.041 49.2053 20.3 47.796 20.3H43.813V28H39.998ZM43.813 16.94H47.845C48.531 16.94 49.126 16.8058 49.63 16.5375C50.134 16.2692 50.5272 15.8935 50.8095 15.4105C51.0918 14.9275 51.233 14.3663 51.233 13.727C51.233 13.0737 51.0918 12.5067 50.8095 12.026C50.5272 11.5453 50.134 11.1708 49.63 10.9025C49.126 10.6342 48.531 10.5 47.845 10.5H43.813V16.94ZM63.07 28.336C61.4507 28.336 60.0402 27.9475 58.8385 27.1705C57.6368 26.3935 56.8073 25.3447 56.35 24.024L59.101 22.722C59.5023 23.5667 60.0518 24.2317 60.7495 24.717C61.4472 25.2023 62.2207 25.445 63.07 25.445C63.742 25.445 64.274 25.2992 64.666 25.0075C65.058 24.7158 65.254 24.3203 65.254 23.821C65.254 23.5223 65.1747 23.275 65.016 23.079C64.8573 22.883 64.645 22.715 64.379 22.575C64.113 22.435 63.8167 22.3207 63.49 22.232L60.998 21.532C59.7147 21.168 58.744 20.5998 58.086 19.8275C57.428 19.0552 57.099 18.1463 57.099 17.101C57.099 16.1677 57.337 15.3533 57.813 14.658C58.289 13.9627 58.9517 13.4202 59.801 13.0305C60.6503 12.6408 61.6187 12.446 62.706 12.446C64.1433 12.446 65.415 12.7913 66.521 13.482C67.627 14.1727 68.4087 15.141 68.866 16.387L66.087 17.689C65.8257 17.003 65.387 16.457 64.771 16.051C64.155 15.645 63.4597 15.442 62.685 15.442C62.069 15.442 61.5825 15.5797 61.2255 15.855C60.8685 16.1303 60.69 16.4967 60.69 16.954C60.69 17.234 60.7647 17.4743 60.914 17.675C61.0633 17.8757 61.2757 18.0437 61.551 18.179C61.8263 18.3143 62.1367 18.4333 62.482 18.536L64.932 19.264C66.1873 19.6327 67.1522 20.1938 67.8265 20.9475C68.5008 21.7012 68.838 22.617 68.838 23.695C68.838 24.6143 68.5953 25.4217 68.11 26.117C67.6247 26.8123 66.9527 27.356 66.094 27.748C65.2353 28.14 64.2273 28.336 63.07 28.336ZM71.666 28V12.782H75.341V28H71.666ZM71.666 11.06V7.14H75.341V11.06H71.666ZM86.065 28.336C84.5483 28.336 83.1915 27.9872 81.9945 27.2895C80.7975 26.5918 79.8502 25.6398 79.1525 24.4335C78.4548 23.2272 78.106 21.8703 78.106 20.363C78.106 18.8557 78.4513 17.5035 79.142 16.3065C79.8327 15.1095 80.78 14.1668 81.984 13.4785C83.188 12.7902 84.5483 12.446 86.065 12.446C87.1523 12.446 88.1627 12.635 89.096 13.013C90.0293 13.391 90.8343 13.9137 91.511 14.581C92.1877 15.2483 92.6777 16.0323 92.981 16.933L89.775 18.354C89.4857 17.5793 89.0108 16.961 88.3505 16.499C87.6902 16.037 86.9283 15.806 86.065 15.806C85.2717 15.806 84.5623 16.0008 83.937 16.3905C83.3117 16.7802 82.8193 17.3215 82.46 18.0145C82.1007 18.7075 81.921 19.4997 81.921 20.391C81.921 21.2777 82.1007 22.0675 82.46 22.7605C82.8193 23.4535 83.3117 23.996 83.937 24.388C84.5623 24.78 85.2717 24.976 86.065 24.976C86.9423 24.976 87.7065 24.745 88.3575 24.283C89.0085 23.821 89.481 23.198 89.775 22.414L92.981 23.87C92.6917 24.724 92.2087 25.4893 91.532 26.166C90.8553 26.8427 90.0503 27.3735 89.117 27.7585C88.1837 28.1435 87.1663 28.336 86.065 28.336ZM100.324 28.336C99.26 28.336 98.3337 28.1575 97.545 27.8005C96.7563 27.4435 96.1473 26.9372 95.718 26.2815C95.2887 25.6258 95.074 24.8523 95.074 23.961C95.074 23.121 95.263 22.372 95.641 21.714C96.019 21.056 96.6012 20.503 97.3875 20.055C98.1738 19.607 99.1597 19.2897 100.345 19.103L105.322 18.291V21.077L101.038 21.826C100.319 21.9567 99.7815 22.1865 99.4245 22.5155C99.0675 22.8445 98.889 23.2843 98.889 23.835C98.889 24.353 99.0885 24.7683 99.4875 25.081C99.8865 25.3937 100.387 25.55 100.989 25.55C101.764 25.55 102.443 25.3832 103.026 25.0495C103.609 24.7158 104.063 24.2632 104.387 23.6915C104.712 23.1198 104.874 22.4887 104.874 21.798V17.864C104.874 17.206 104.621 16.66 104.114 16.226C103.608 15.792 102.93 15.575 102.081 15.575C101.292 15.575 100.598 15.7862 99.9985 16.2085C99.3988 16.6308 98.959 17.185 98.679 17.871L95.683 16.415C95.977 15.6123 96.4448 14.9147 97.0865 14.322C97.7282 13.7293 98.49 13.2685 99.372 12.9395C100.254 12.6105 101.206 12.446 102.228 12.446C103.469 12.446 104.567 12.6747 105.521 13.132C106.476 13.5893 107.219 14.224 107.751 15.036C108.283 15.848 108.549 16.7907 108.549 17.864V28H105.084V25.403L105.875 25.354C105.474 25.998 105.001 26.5417 104.457 26.985C103.914 27.4283 103.298 27.7643 102.609 27.993C101.921 28.2217 101.159 28.336 100.324 28.336ZM111.93 28V12.782H115.395V16.149L115.115 15.659C115.456 14.5157 116.006 13.7212 116.767 13.2755C117.528 12.8298 118.435 12.607 119.49 12.607H120.4V15.862H119.084C118.043 15.862 117.203 16.1805 116.564 16.8175C115.925 17.4545 115.605 18.354 115.605 19.516V28H111.93ZM129.633 28.336C128.065 28.336 126.692 27.9813 125.514 27.272C124.335 26.5627 123.419 25.6037 122.766 24.395C122.113 23.1863 121.786 21.84 121.786 20.356C121.786 18.83 122.121 17.4732 122.791 16.2855C123.46 15.0978 124.366 14.161 125.507 13.475C126.648 12.789 127.934 12.446 129.367 12.446C130.548 12.446 131.594 12.6397 132.507 13.027C133.419 13.4143 134.191 13.9522 134.824 14.6405C135.456 15.3288 135.938 16.1187 136.269 17.01C136.6 17.9013 136.766 18.858 136.766 19.88C136.766 20.1507 136.753 20.4237 136.728 20.699C136.702 20.9743 136.656 21.2193 136.591 21.434H124.831V18.634H134.505L132.762 19.936C132.944 19.0773 132.908 18.312 132.654 17.64C132.399 16.968 131.986 16.436 131.415 16.044C130.843 15.652 130.16 15.456 129.367 15.456C128.588 15.456 127.903 15.6497 127.313 16.037C126.722 16.4243 126.273 16.9855 125.965 17.7205C125.657 18.4555 125.536 19.3433 125.601 20.384C125.522 21.3267 125.647 22.1538 125.976 22.8655C126.305 23.5772 126.79 24.1302 127.432 24.5245C128.073 24.9188 128.821 25.116 129.675 25.116C130.51 25.116 131.221 24.9387 131.807 24.584C132.392 24.2293 132.855 23.758 133.196 23.17L136.164 24.605C135.865 25.333 135.398 25.9782 134.76 26.5405C134.124 27.1028 133.37 27.5427 132.5 27.86C131.629 28.1773 130.674 28.336 129.633 28.336Z" fill="#1B1B22"/>
</svg>
